<svg id="icons" enable-background="new 0 0 64 64" height="512" viewBox="0 0 64 64" width="512" xmlns="http://www.w3.org/2000/svg"><g><g><path d="m26.5 32.03v.97h-3v-12.99h3z" fill="#e6e9ed"/></g><g><path d="m27.5 16.01v4h-1-3-1v-4z" fill="#656d78"/></g><g><path d="m27.5 33v27h-3-2v-27h1 3z" fill="#656d78"/></g><g><path d="m24.5 60h3v3h-3z" fill="#545c66"/></g><g><path d="m40.5 20.01v12.99h-3v-1-11.99z" fill="#e6e9ed"/></g><g><path d="m41.5 33v27h-2-3v-27h1 3z" fill="#656d78"/></g><g><path d="m41.5 16.01v4h-1-3-1v-4z" fill="#656d78"/></g><g><path d="m36.5 60h3v3h-3z" fill="#545c66"/></g><g><path d="m36.5 16.01v4l-4-4.01h-1l-4 4.01v-4l3-3.01h3z" fill="#545c66"/></g><g><path d="m30.5 1h3v12h-3z" fill="#e6e9ed"/></g></g><g><g><path d="m27.5 60.997h-5c-.553 0-1-.447-1-1v-26.997c0-.553.447-1 1-1h5c.553 0 1 .447 1 1v26.997c0 .553-.447 1-1 1zm-4-2h3v-24.997h-3z"/></g><g><path d="m41.5 60.997h-5c-.553 0-1-.447-1-1v-26.997c0-.553.447-1 1-1h5c.553 0 1 .447 1 1v26.997c0 .553-.447 1-1 1zm-4-2h3v-24.997h-3z"/></g><g><path d="m40.5 34.002h-3c-.553 0-1-.447-1-1v-12.996c0-.553.447-1 1-1h3c.553 0 1 .447 1 1v12.996c0 .553-.447 1-1 1zm-2-2h1v-10.996h-1z"/></g><g><path d="m26.5 34.002h-3c-.553 0-1-.447-1-1v-12.996c0-.553.447-1 1-1h3c.553 0 1 .447 1 1v12.996c0 .553-.447 1-1 1zm-2-2h1v-10.996h-1z"/></g><g><path d="m27.5 21.006h-5c-.553 0-1-.447-1-1v-3.999c0-.553.447-1 1-1h5c.553 0 1 .447 1 1v3.999c0 .553-.447 1-1 1zm-4-2h3v-1.999h-3z"/></g><g><path d="m41.5 21.006h-5c-.553 0-1-.447-1-1v-3.999c0-.553.447-1 1-1h5c.553 0 1 .447 1 1v3.999c0 .553-.447 1-1 1zm-4-2h3v-1.999h-3z"/></g><g><path d="m36.5 17.007c-.256 0-.513-.098-.708-.294l-3-3.005c-.39-.391-.39-1.023.002-1.414.389-.389 1.023-.391 1.414.002l3 3.005c.39.391.39 1.023-.002 1.414-.194.194-.45.292-.706.292z"/></g><g><path d="m36.5 21.013c-.256 0-.513-.098-.708-.294l-4.004-4.011c-.39-.391-.39-1.023.002-1.414.389-.389 1.023-.391 1.414.002l4.004 4.011c.39.391.39 1.023-.002 1.414-.194.194-.45.292-.706.292z"/></g><g><path d="m27.498 17.007c-.256 0-.512-.098-.706-.292-.392-.391-.392-1.023-.002-1.414l3-3.005c.391-.393 1.025-.391 1.414-.002.392.391.392 1.023.002 1.414l-3 3.005c-.195.196-.452.294-.708.294z"/></g><g><path d="m27.498 21.013c-.256 0-.512-.098-.706-.292-.392-.391-.392-1.024-.002-1.414l4.004-4.011c.391-.393 1.025-.391 1.414-.002.392.391.392 1.023.002 1.414l-4.004 4.011c-.195.196-.452.294-.708.294z"/></g><g><path d="m33.5 14.002h-3c-.553 0-1-.447-1-1v-12.002c0-.553.447-1 1-1h3c.553 0 1 .447 1 1v12.002c0 .553-.447 1-1 1zm-2-2h1v-10.002h-1z"/></g><g><path d="m32.496 17.002h-.994c-.553 0-1-.447-1-1s.447-1 1-1h.994c.553 0 1 .447 1 1s-.447 1-1 1z"/></g><g><path d="m26.5 33.033c-.553 0-1-.447-1-1 0-2.206 1.794-4.001 4-4.001.553 0 1 .447 1 1s-.447 1-1 1c-1.103 0-2 .897-2 2.001 0 .553-.447 1-1 1z"/></g><g><path d="m37.5 33.002c-.553 0-1-.447-1-1 0-1.103-.897-2-2-2-.553 0-1-.447-1-1s.447-1 1-1c2.206 0 4 1.794 4 4 0 .553-.447 1-1 1z"/></g><g><path d="m34.5 30.002h-5c-.553 0-1-.447-1-1s.447-1 1-1h5c.553 0 1 .447 1 1s-.447 1-1 1z"/></g><g><path d="m27.5 64h-3c-.553 0-1-.447-1-1v-3.003c0-.553.447-1 1-1h3c.553 0 1 .447 1 1v3.003c0 .553-.447 1-1 1zm-2-2h1v-1.003h-1z"/></g><g><path d="m39.5 64h-3c-.553 0-1-.447-1-1v-3.003c0-.553.447-1 1-1h3c.553 0 1 .447 1 1v3.003c0 .553-.447 1-1 1zm-2-2h1v-1.003h-1z"/></g></g></svg>