<svg id="icons" enable-background="new 0 0 64 64" height="512" viewBox="0 0 64 64" width="512" xmlns="http://www.w3.org/2000/svg"><g><g><path d="m15 7.5v3h-.08-3.13-2.79v-3z" fill="#656d78"/></g><g><path d="m14.92 10.5 2.65 9h-3.13l-2.65-9z" fill="#5d9cec"/></g><g><path d="m62.89 49.45c.311.77-.069 1.64-.84 1.95-.18.069-.37.1-.55.1-.6 0-1.16-.36-1.4-.95l-7.91-20.09-1.21-3.07-1.461-3.71-1.14-2.91-1.27-3.22 1.409-.56 1.381-.54z" fill="#5d9cec"/></g><g><path d="m48.38 20.77 1.14 2.91-29.94 2.65-.86-2.93 29.65-2.63z" fill="#4a89dc"/></g><g><path d="m27.17 52.1 23.81-24.71 1.21 3.07-24.65 25.58c.36-.37.52-.93.36-1.46z" fill="#4a89dc"/></g><g><path d="m26.46 56.5c-.16 0-.32-.03-.47-.08-.45-.14-.82-.5-.971-1l-.739-2.51-7.16-24.3-1.12-3.83-1.56-5.28h3.13l1.149 3.9.86 2.93 7.59 25.77.73 2.48c.159.53 0 1.09-.36 1.46-.17.19-.39.32-.65.4-.149.04-.289.06-.429.06z" fill="#5d9cec"/></g><g><path d="m25.02 55.42c.15.5.521.86.971 1v.01l-23.851-5.97c-.16-.04-.31-.11-.44-.19-.01-.01-.021-.02-.04-.02-.07-.05-.13-.1-.18-.15-.34-.32-.52-.79-.47-1.28.01-.061.03-.12.04-.181.03-.149.09-.3.181-.439l14.769-23.42 1.12 3.83-12.24 19.44 19.4 4.86z" fill="#4a89dc"/></g></g><g><g><g><path d="m26.461 57.5c-1.099 0-2.085-.737-2.396-1.793l-13.235-44.925c-.156-.529.146-1.085.677-1.241.533-.158 1.086.148 1.241.677l13.234 44.924c.077.259.354.414.628.337.166-.049.254-.171.291-.238.063-.117.078-.253.04-.381l-12.984-44.078c-.156-.529.146-1.085.677-1.241.531-.158 1.086.148 1.241.677l12.984 44.076c.189.64.117 1.315-.201 1.901-.319.587-.848 1.015-1.488 1.203-.236.069-.473.102-.709.102z"/></g></g><g><g><path d="m27.172 53.102c-.25 0-.5-.093-.693-.28-.398-.383-.41-1.016-.026-1.413l23.809-24.713c.385-.397 1.019-.409 1.413-.026.398.383.41 1.016.026 1.413l-23.809 24.712c-.197.204-.458.307-.72.307z"/></g><g><path d="m27.543 57.041c-.25 0-.5-.093-.694-.28-.397-.383-.409-1.016-.025-1.414l24.648-25.58c.385-.397 1.017-.408 1.414-.025s.409 1.016.025 1.414l-24.648 25.58c-.197.202-.458.305-.72.305z"/></g></g><g><g><path d="m61.498 52.5c-1.033 0-1.946-.621-2.325-1.583l-12.998-33c-.202-.514.051-1.094.564-1.297.512-.2 1.094.051 1.297.564l12.998 33c.1.253.395.38.653.279.25-.099.377-.391.276-.646l-12.998-33c-.202-.514.051-1.094.564-1.297.513-.2 1.094.051 1.297.564l12.998 33c.504 1.28-.128 2.734-1.408 3.241-.299.117-.606.175-.918.175z"/></g></g><g><g><path d="m18.716 24.398c-.513 0-.949-.392-.995-.912-.049-.55.357-1.035.908-1.084l29.656-2.629c.549-.048 1.035.358 1.084.908s-.357 1.035-.908 1.084l-29.656 2.629c-.03.003-.06.004-.089.004z"/></g><g><path d="m19.581 27.332c-.513 0-.949-.392-.995-.912-.049-.55.357-1.035.908-1.084l29.938-2.654c.54-.047 1.036.358 1.084.908.049.55-.357 1.035-.908 1.084l-29.938 2.654c-.029.003-.06.004-.089.004z"/></g></g><g><g><path d="m1.7 51.27c-.182 0-.366-.05-.532-.153-.564-.356-.957-.911-1.104-1.563-.147-.65-.033-1.32.322-1.886l14.764-23.428c.294-.467.912-.606 1.379-.313s.607.911.313 1.379l-14.764 23.428c-.071.113-.094.247-.064.378.017.075.068.215.221.311.467.295.607.912.313 1.38-.191.301-.516.467-.848.467z"/></g><g><path d="m4.876 49.047c-.183 0-.366-.05-.532-.154-.467-.294-.607-.911-.313-1.379l12.248-19.439c.294-.467.911-.606 1.379-.313.467.294.607.911.313 1.379l-12.248 19.439c-.19.302-.515.467-.847.467z"/></g></g><g><g><path d="m24.286 53.908c-.081 0-.162-.01-.244-.03l-19.404-4.857c-.535-.134-.861-.677-.727-1.213s.675-.863 1.213-.727l19.404 4.857c.535.134.861.677.727 1.213-.113.454-.522.757-.969.757z"/></g><g><path d="m26.099 57.455c-.081 0-.162-.01-.244-.03l-23.961-6c-.647-.162-1.192-.566-1.536-1.14-.343-.572-.442-1.244-.28-1.892.134-.536.678-.863 1.213-.727.535.134.861.677.727 1.213-.043.174.017.312.057.378.039.065.132.184.307.228l23.961 6c.535.134.861.677.727 1.213-.116.454-.524.757-.971.757z"/></g></g><g><path d="m17.568 20.5h-4.566c-.553 0-1-.447-1-1s.447-1 1-1h4.566c.553 0 1 .447 1 1s-.447 1-1 1z"/></g><g><path d="m15.002 11.5h-6c-.553 0-1-.447-1-1v-3c0-.553.447-1 1-1h6c.553 0 1 .447 1 1v3c0 .553-.447 1-1 1zm-5-2h4v-1h-4z"/></g><g><path d="m47.105 18.551c-.398 0-.775-.24-.931-.634-.202-.514.05-1.094.564-1.297l2.791-1.1c.513-.2 1.094.051 1.297.564.202.514-.05 1.094-.564 1.297l-2.791 1.1c-.119.047-.243.07-.366.07z"/></g><g><path d="m48.518 17.992c-.398 0-.775-.24-.931-.634l-.979-2.486c-.202-.514.051-1.095.564-1.297.512-.199 1.094.05 1.297.564l.979 2.486c.202.514-.051 1.095-.564 1.297-.12.048-.244.07-.366.07z"/></g></g></svg>