<?xml version="1.0" encoding="UTF-8"?>
<svg xmlns="http://www.w3.org/2000/svg" xmlns:xlink="http://www.w3.org/1999/xlink" width="512" height="512" viewBox="0 0 60 60" version="1.1"><!-- Generator: Sketch 51.3 (57544) - http://www.bohemiancoding.com/sketch --><title>024 - Gear Train</title><desc>Created with Sketch.</desc><defs/><g id="Page-1" stroke="none" stroke-width="1" fill="none" fill-rule="evenodd"><g id="024---Gear-Train" fill-rule="nonzero"><polygon id="Shape" fill="#02A9F4" points="22.08 21.12 34.24 12.06 34.58 6.83 14.42 21.84"/><polygon id="Shape" fill="#0377BC" points="36.37 49.63 36.38 49.62 53 35 53.01 35 48.86 33.33 38.88 42.11"/><path d="M39,40 C39,50.4934102 30.4934102,59 20,59 C19.5,59 18.99,58.98 18.5,58.94 C8.62297388,58.1531888 1.00877434,49.9083155 1.00877434,40 C1.00877434,30.0916845 8.62297388,21.8468112 18.5,21.06 C18.99,21.02 19.5,21 20,21 C25.0391133,21 29.8718377,23.00178 33.4350288,26.5649712 C36.99822,30.1281623 39,34.9608867 39,40 Z" id="Shape" fill="#37474F"/><ellipse id="Oval" fill="#607D8B" cx="18.5" cy="40" rx="17.5" ry="18.94"/><path d="M33,40 C32.9933843,47.1769596 27.1769596,52.9933843 20,53 C19.4986354,53.0005196 18.9977056,52.9704638 18.5,52.91 C11.9566156,52.1360175 7.02705599,46.5890006 7.02705599,40 C7.02705599,33.4109994 11.9566156,27.8639825 18.5,27.09 C18.9977056,27.0295362 19.4986354,26.9994804 20,27 C27.1769596,27.0066157 32.9933843,32.8230404 33,40 Z" id="Shape" fill="#707070"/><ellipse id="Oval" fill="#9E9E9E" cx="18.5" cy="40" rx="11.5" ry="12.91"/><path d="M24,40 C24,42.209139 22.209139,44 20,44 C19.4847146,44.0039542 18.9741272,43.9018367 18.5,43.7 C16.9895658,43.0925605 16,41.6280031 16,40 C16,38.3719969 16.9895658,36.9074395 18.5,36.3 C18.9741272,36.0981633 19.4847146,35.9960458 20,36 C22.209139,36 24,37.790861 24,40 Z" id="Shape" fill="#0377BC"/><ellipse id="Oval" fill="#02A9F4" cx="18.5" cy="40" rx="2.5" ry="3.7"/><path d="M51.89,31.66 L51.88,31.66 C51.3286982,31.6572435 50.8836248,31.2088195 50.8850031,30.6575125 C50.8863814,30.1062055 51.3336913,29.6600125 51.885,29.6600125 C52.4363087,29.6600125 52.8836186,30.1062055 52.8849969,30.6575125 C52.8863752,31.2088195 52.4413018,31.6572435 51.89,31.66 Z" id="Shape" fill="#000000"/><polygon id="Shape" fill="#0377BC" points="49.27 16.45 51.72 23.14 56.3 23.99 51.82 11.81 51.82 11.8 51.82 11.79"/><path d="M52,10 C52,14.9705627 47.9705627,19 43,19 C42.4975784,19.0006098 41.9959346,18.9604783 41.5,18.88 C37.1691076,18.1449193 34.0001991,14.3928319 34.0001991,10 C34.0001991,5.60716808 37.1691076,1.85508073 41.5,1.12 C41.9959346,1.03952169 42.4975784,0.999390188 43,1 C47.9705627,1 52,5.02943725 52,10 Z" id="Shape" fill="#37474F"/><ellipse id="Oval" fill="#607D8B" cx="41.5" cy="10" rx="7.5" ry="8.88"/><path d="M48,10 C48,11.3260824 47.4732158,12.597852 46.5355339,13.5355339 C45.597852,14.4732158 44.3260824,15 43,15 C42.4920766,14.9984453 41.986978,14.9243642 41.5,14.78 C39.4160564,14.1199968 37.9998679,12.185961 37.9998679,10 C37.9998679,7.81403904 39.4160564,5.88000321 41.5,5.22 C41.986978,5.07563582 42.4920766,5.00155469 43,5 C45.7614237,5 48,7.23857625 48,10 Z" id="Shape" fill="#707070"/><ellipse id="Oval" fill="#9E9E9E" cx="41.5" cy="10" rx="3.5" ry="4.78"/><path d="M59,29 C59.0039716,29.5728307 58.9196488,30.1428528 58.75,30.69 C58.2969697,32.2405915 57.2367578,33.5424164 55.81,34.3 C54.9494686,34.7627245 53.9870451,35.0033304 53.01,35 L53,35 C52.4971194,35.0027888 51.9960882,34.938899 51.51,34.81 C50.5110773,34.5603297 49.5965008,34.0495474 48.86,33.33 C47.2812204,31.8297297 46.6431063,29.5896572 47.1943015,27.4826356 C47.7454967,25.3756141 49.3988019,23.734975 51.51,23.2 C51.5786025,23.175398 51.6487553,23.1553543 51.72,23.14 C53.4939185,22.7526469 55.3478281,23.1894303 56.7622468,24.3279596 C58.1766655,25.466489 58.9994321,27.1842828 59,29 Z" id="Shape" fill="#707070"/><path d="M56,29 C56.0039716,29.5728307 55.9196488,30.1428528 55.75,30.69 C55.2969697,32.2405915 54.2367578,33.5424164 52.81,34.3 C52.398552,34.5212267 51.9621184,34.692443 51.51,34.81 C50.5110773,34.5603297 49.5965008,34.0495474 48.86,33.33 C47.2812204,31.8297297 46.6431063,29.5896572 47.1943015,27.4826356 C47.7454967,25.3756141 49.3988019,23.734975 51.51,23.2 C52.1480425,23.357309 52.753777,23.6246443 53.3,23.99 C54.9839229,25.1009006 55.9980405,26.9826521 56,29 Z" id="Shape" fill="#9E9E9E"/><circle id="Oval" fill="#02A9F4" cx="53" cy="29" r="2"/><path d="M20,60 C8.954305,60 1.3527075e-15,51.045695 0,40 C-1.3527075e-15,28.954305 8.954305,20 20,20 C31.045695,20 40,28.954305 40,40 C39.9873253,51.0404407 31.0404407,59.9873253 20,60 Z M20,22 C10.0588745,22 2,30.0588745 2,40 C2,49.9411255 10.0588745,58 20,58 C29.9411255,58 38,49.9411255 38,40 C37.9884279,30.0636718 29.9363282,22.0115721 20,22 Z" id="Shape" fill="#000000"/><path d="M20,54 C12.2680135,54 6,47.7319865 6,40 C6,32.2680135 12.2680135,26 20,26 C27.7319865,26 34,32.2680135 34,40 C33.9917327,47.7285595 27.7285595,53.9917327 20,54 Z M20,28 C13.372583,28 8,33.372583 8,40 C8,46.627417 13.372583,52 20,52 C26.627417,52 32,46.627417 32,40 C31.9928352,33.375553 26.624447,28.0071648 20,28 Z" id="Shape" fill="#000000"/><path d="M20,45 C17.2385763,45 15,42.7614237 15,40 C15,37.2385763 17.2385763,35 20,35 C22.7614237,35 25,37.2385763 25,40 C24.9966939,42.7600532 22.7600532,44.9966939 20,45 Z M20,37 C18.3431458,37 17,38.3431458 17,40 C17,41.6568542 18.3431458,43 20,43 C21.6568542,43 23,41.6568542 23,40 C23,38.3431458 21.6568542,37 20,37 Z" id="Shape" fill="#000000"/><path d="M43,20 C37.4771525,20 33,15.5228475 33,10 C33,4.4771525 37.4771525,1.01453063e-15 43,0 C48.5228475,-1.01453063e-15 53,4.4771525 53,10 C52.9939376,15.5203344 48.5203344,19.9939376 43,20 Z M43,2 C38.581722,2 35,5.581722 35,10 C35,14.418278 38.581722,18 43,18 C47.418278,18 51,14.418278 51,10 C50.9950401,5.58377808 47.4162219,2.00495988 43,2 Z" id="Shape" fill="#000000"/><path d="M43,16 C39.6862915,16 37,13.3137085 37,10 C37,6.6862915 39.6862915,4 43,4 C46.3137085,4 49,6.6862915 49,10 C48.9966926,13.3123376 46.3123376,15.9966926 43,16 Z M43,6 C40.790861,6 39,7.790861 39,10 C39,12.209139 40.790861,14 43,14 C45.209139,14 47,12.209139 47,10 C47,8.93913404 46.5785726,7.92171839 45.8284271,7.17157288 C45.0782816,6.42142736 44.060866,6 43,6 Z" id="Shape" fill="#000000"/><path d="M53.01,36 C51.2007693,36.0096456 49.4601325,35.3082914 48.163,34.047 C45.8575328,31.8431196 45.333304,28.3594489 46.8880697,25.574674 C48.4428354,22.789899 51.683457,21.4081793 54.7692974,22.2143161 C57.8551379,23.0204529 60.0059103,25.8106062 60,29 C60.0033188,29.6748421 59.9021198,30.3461286 59.7,30.99 C59.1671587,32.79029 57.933457,34.3010702 56.276,35.183 C55.2716407,35.7212112 54.1494759,36.0019242 53.01,36 Z M53,24 C52.6418033,24.0001867 52.2846942,24.0394184 51.935,24.117 C49.6414802,24.6220074 48.0059612,26.6515473 48,29 C48.0004703,30.7520524 48.9179689,32.3760401 50.4184243,33.2806513 C51.9188798,34.1852625 53.7833649,34.2385078 55.333,33.421 C56.5231314,32.7897342 57.4085258,31.7053424 57.789,30.413 C57.9322686,29.9558116 58.0034551,29.4790983 58,29 C58,26.2385763 55.7614237,24 53,24 Z" id="Shape" fill="#000000"/><path d="M53,32 C51.3431458,32 50,30.6568542 50,29 C50,27.3431458 51.3431458,26 53,26 C54.6568542,26 56,27.3431458 56,29 C56,30.6568542 54.6568542,32 53,32 Z M53,28 C52.4477153,28 52,28.4477153 52,29 C52,29.5522847 52.4477153,30 53,30 C53.5522847,30 54,29.5522847 54,29 C54,28.4477153 53.5522847,28 53,28 Z" id="Shape" fill="#000000"/><circle id="Oval" fill="#000000" cx="43" cy="10" r="1"/><circle id="Oval" fill="#000000" cx="20" cy="32" r="1"/><circle id="Oval" fill="#000000" cx="20" cy="48" r="1"/><circle id="Oval" fill="#000000" cx="28" cy="40" r="1"/><circle id="Oval" fill="#000000" cx="12" cy="40" r="1"/><circle id="Oval" fill="#000000" cx="25.657" cy="34.343" r="1"/><circle id="Oval" fill="#000000" cx="14.343" cy="45.657" r="1"/><circle id="Oval" fill="#000000" cx="25.657" cy="45.657" r="1"/><circle id="Oval" fill="#000000" cx="14.343" cy="34.343" r="1"/><path d="M14.421,22.84 C13.9905696,22.84 13.6084307,22.5645699 13.4723167,22.1562278 C13.3362027,21.7478856 13.4766557,21.2982582 13.821,21.04 L33.981,6.03 C34.2649511,5.79031745 34.658388,5.72784493 35.0026174,5.86778084 C35.3468469,6.00771674 35.5850995,6.32698328 35.6212758,6.6968038 C35.6574522,7.06662432 35.4855861,7.4260092 35.175,7.63 L15.015,22.64 C14.8435478,22.7685972 14.6353162,22.8387089 14.421,22.84 Z" id="Shape" fill="#000000"/><path d="M22.081,22.12 C21.6505696,22.12 21.2684307,21.8445699 21.1323167,21.4362278 C20.9962027,21.0278856 21.1366557,20.5782582 21.481,20.32 L33.642,11.26 C34.0838278,10.9286292 34.7106292,11.0181722 35.042,11.46 C35.3733708,11.9018278 35.2838278,12.5286292 34.842,12.86 L22.682,21.92 C22.5086302,22.0500276 22.2977123,22.1202166 22.081,22.12 Z" id="Shape" fill="#000000"/><path d="M38.11,9.935 C37.5577153,9.935 37.11,9.48728475 37.11,8.935 L37.11,8.93 C37.1127582,8.37837454 37.5616874,7.93316906 38.1133167,7.93500554 C38.664946,7.93684202 39.1109009,8.38502674 39.1099861,8.93665834 C39.1090713,9.48828994 38.6616324,9.9349931 38.11,9.935 Z" id="Shape" fill="#000000"/><path d="M51.89,31.66 L51.88,31.66 C51.3286982,31.6572435 50.8836248,31.2088195 50.8850031,30.6575125 C50.8863814,30.1062055 51.3336913,29.6600125 51.885,29.6600125 C52.4363087,29.6600125 52.8836186,30.1062055 52.8849969,30.6575125 C52.8863752,31.2088195 52.4413018,31.6572435 51.89,31.66 Z" id="Shape" fill="#000000"/><path d="M38.88,43.11 C38.4637009,43.1102906 38.0907687,42.8526444 37.9437435,42.4631722 C37.7967183,42.0737 37.9063592,41.6338831 38.219,41.359 L48.199,32.579 C48.6148202,32.229937 49.2331976,32.2764179 49.5921652,32.6837184 C49.9511327,33.091019 49.919545,33.7103358 49.521,34.079 L39.541,42.859 C39.3585833,43.0203676 39.1235471,43.1096173 38.88,43.11 Z" id="Shape" fill="#000000"/><path d="M36.373,50.623 C35.9711103,50.6213384 35.6092631,50.3792437 35.454379,50.0083946 C35.299495,49.6375455 35.3816714,49.2100058 35.663,48.923 L52.339,34.249 C52.771439,33.9043743 53.4013743,33.975561 53.746,34.408 C54.0906257,34.840439 54.019439,35.4703743 53.587,35.815 L37.041,50.371 C36.856438,50.5335229 36.6189204,50.6231254 36.373,50.623 Z" id="Shape" fill="#000000"/><path d="M55.811,35.3 C55.351572,35.3007486 54.9507418,34.9883555 54.8392583,34.5426582 C54.7277748,34.0969609 54.9343239,33.6326422 55.34,33.417 C56.5261805,32.786575 57.4088006,31.7053743 57.789,30.417 C57.8879626,30.0736678 58.1625733,29.8092116 58.509389,29.7232496 C58.8562048,29.6372876 59.2225359,29.7428794 59.470389,30.0002496 C59.7182422,30.2576198 59.8099626,30.6276678 59.711,30.971 C59.1807115,32.7804834 57.9440067,34.3001417 56.28,35.187 C56.135231,35.2623765 55.9742124,35.3011721 55.811,35.3 Z" id="Shape" fill="#000000"/><path d="M56.3,24.991 C55.8803628,24.9910127 55.5053552,24.7290266 55.361,24.335 L50.881,12.155 C50.7685727,11.8470592 50.8127559,11.5036938 50.9994797,11.2342468 C51.1862035,10.9647998 51.4921902,10.8028614 51.82,10.8 C52.2805857,10.7966597 52.6830086,11.1104833 52.792,11.558 L57.238,23.645 C57.3511323,23.9517764 57.3071422,24.2944844 57.1201983,24.562743 C56.9332544,24.8310015 56.626972,24.9909233 56.3,24.991 Z" id="Shape" fill="#000000"/><path d="M51.72,24.141 C51.3001067,24.1408592 50.9250234,23.8784207 50.781,23.484 L48.331,16.794 C48.2081006,16.4585276 48.2735093,16.0829723 48.5025873,15.8088021 C48.7316652,15.534632 49.08961,15.4034999 49.4415873,15.4648021 C49.7935646,15.5261044 50.0861006,15.7705276 50.209,16.106 L52.659,22.796 C52.7502424,23.0450379 52.7388138,23.3201222 52.6272287,23.5607335 C52.5156436,23.8013448 52.3130431,23.9877718 52.064,24.079 C51.9539239,24.1199268 51.8374383,24.1409213 51.72,24.141 Z" id="Shape" fill="#000000"/></g></g></svg>
