<?xml version="1.0"?>
<svg xmlns="http://www.w3.org/2000/svg" viewBox="0 0 64 64" width="512" height="512"><g id="Filled_outline" data-name="Filled outline"><rect x="31" y="11" width="2" height="14" style="fill:#98a1a1"/><rect x="21" y="14.929" width="2" height="14.142" transform="translate(-9.113 22) rotate(-45)" style="fill:#98a1a1"/><rect x="34.929" y="21" width="14.142" height="2" transform="translate(-3.255 36.142) rotate(-45)" style="fill:#98a1a1"/><rect x="31" y="39" width="2" height="15" style="fill:#98a1a1"/><rect x="14.929" y="41" width="14.142" height="2" transform="translate(-23.255 27.858) rotate(-45)" style="fill:#98a1a1"/><rect x="41" y="34.929" width="2" height="14.142" transform="translate(-17.397 42) rotate(-45)" style="fill:#98a1a1"/><rect x="10" y="31" width="15" height="2" style="fill:#98a1a1"/><rect x="39" y="31" width="15" height="2" style="fill:#98a1a1"/><path d="M32,3A29,29,0,1,0,61,32,29,29,0,0,0,32,3Zm0,50A21,21,0,1,1,53,32,21,21,0,0,1,32,53Z" style="fill:#394d5c"/><circle cx="32" cy="32" r="8" style="fill:#394d5c"/><circle cx="32" cy="32" r="3" style="fill:#bfbfbf"/><path d="M8,32.08,6,31.92C8.053,6.3,31.761,6,32,6V8C31.1,8,9.9,8.321,8,32.08Z" style="fill:#bfbfbf"/><rect x="6" y="34" width="2" height="2" style="fill:#bfbfbf"/><rect x="31" y="58" width="2" height="3" style="fill:#bfbfbf"/><rect x="50" y="49.586" width="2" height="2.828" transform="translate(-21.125 51) rotate(-45)" style="fill:#bfbfbf"/><rect x="58" y="31" width="3" height="2" style="fill:#bfbfbf"/><rect x="49.586" y="12" width="2.828" height="2" transform="translate(5.745 39.87) rotate(-45)" style="fill:#bfbfbf"/><rect x="11.586" y="50" width="2.828" height="2" transform="translate(-32.255 24.13) rotate(-45)" style="fill:#bfbfbf"/><path d="M32,2A30,30,0,1,0,62,32,30.034,30.034,0,0,0,32,2ZM59.975,33a27.9,27.9,0,0,1-7.5,18.066l-1.773-1.773-1.414,1.414,1.773,1.773A27.9,27.9,0,0,1,33,59.975V58H31v1.975a27.9,27.9,0,0,1-18.066-7.5l1.773-1.773-1.414-1.414L11.52,51.066A27.98,27.98,0,0,1,51.066,11.52l-1.773,1.773,1.414,1.414,1.773-1.773A27.9,27.9,0,0,1,59.975,31H58v2Z"/><path d="M32,10A22.026,22.026,0,0,0,10.025,31H10v2h.025A22.026,22.026,0,0,0,31,53.975V54h2v-.025A22.026,22.026,0,0,0,53.975,33H54V31h-.025A22.026,22.026,0,0,0,32,10Zm1,2.051a19.89,19.89,0,0,1,12.4,5.14l-8.5,8.5A7.953,7.953,0,0,0,33,24.069Zm-2,0V24.069a7.953,7.953,0,0,0-3.9,1.619l-8.5-8.5A19.89,19.89,0,0,1,31,12.051ZM17.191,18.605l8.5,8.5A7.953,7.953,0,0,0,24.069,31H12.051A19.89,19.89,0,0,1,17.191,18.605ZM12.051,33H24.069a7.953,7.953,0,0,0,1.619,3.9l-8.5,8.5A19.89,19.89,0,0,1,12.051,33ZM31,51.949a19.89,19.89,0,0,1-12.395-5.14l8.5-8.5A7.953,7.953,0,0,0,31,39.931ZM32,38a6,6,0,1,1,6-6A6.006,6.006,0,0,1,32,38Zm1,13.949V39.931a7.953,7.953,0,0,0,3.9-1.619l8.5,8.5A19.89,19.89,0,0,1,33,51.949ZM46.809,45.4l-8.5-8.5A7.953,7.953,0,0,0,39.931,33H51.949A19.89,19.89,0,0,1,46.809,45.4ZM39.931,31a7.953,7.953,0,0,0-1.619-3.9l8.5-8.5A19.89,19.89,0,0,1,51.949,31Z"/><path d="M32,28a4,4,0,1,0,4,4A4,4,0,0,0,32,28Zm0,6a2,2,0,1,1,2-2A2,2,0,0,1,32,34Z"/><path d="M32,8V6c-.239,0-23.947.3-26,25.92L8,32.08C9.9,8.321,31.1,8,32,8Z"/><rect x="6" y="34" width="2" height="2"/></g></svg>
